<?xml version="1.0" encoding="utf-8"?>
<!-- Generator: Adobe Illustrator 26.0.1, SVG Export Plug-In . SVG Version: 6.00 Build 0)  -->
<svg version="1.1" id="Layer_1" xmlns="http://www.w3.org/2000/svg" xmlns:xlink="http://www.w3.org/1999/xlink" x="0px" y="0px"
	 viewBox="0 0 576 59" style="enable-background:new 0 0 576 59;" xml:space="preserve">
<path d="M471.07,56.82c0.26-1.18,0.87-1.22,1.39-1.19c2.9,0.2,3.54-1.57,3.71-3.98c0.67-9.71,0.27-19.42,0.36-29.13
	c0.04-4.8,0.04-9.6-0.1-14.4c-0.13-4.54-0.61-4.95-5.24-5.6c-0.44-0.06-0.88-0.08-1.06-0.62c0.17-0.97,0.99-0.69,1.57-0.69
	C480.74,1.2,489.8,1,498.83,1.3c13.08,0.43,21.59,6.91,24.94,18.44c3.51,12.09-0.75,26.33-9.98,32.9
	c-6.48,4.62-13.92,5.85-21.65,5.34c-6.46-0.42-12.9-1.04-19.39-0.85C472.23,57.16,471.7,56.95,471.07,56.82z M515.91,31.43
	C515.84,14.1,504.43,3.11,488.27,4.9c-1.83,0.2-3.1,0.52-3.1,2.86c-0.05,13.75-0.19,27.49,0.25,41.23c0.07,2.2,1.14,3.56,3.01,4.39
	c10.78,4.8,24.47-2.38,26.55-13.97C515.45,36.78,515.61,34.09,515.91,31.43z"/>
<path d="M153.75,56.78c-6.66,0-12.63,0-18.6,0c-0.24-0.28-0.48-0.55-0.72-0.83c7.76,0.19,6.32-5.05,6.4-9.29
	c0.25-14.41,0.43-28.83,0.65-43.24c0.02-1.19-0.44-2.84,0.88-3.31c1.37-0.49,1.94,1.2,2.7,2.06c11.18,12.76,22.33,25.54,33.5,38.31
	c0.51,0.58,1.04,1.13,1.56,1.69c1.1-0.58,0.62-1.46,0.61-2.13c-0.18-9.72-0.3-19.44-0.67-29.16c-0.27-7.24,0.53-7.21-6.48-9.27
	c5.76,0,11.52,0,17.28,0c-5.84,0.72-5.23,5.09-5.28,9.07c-0.21,14.52-0.42,29.05-0.68,43.57c-0.02,1.25,0.62,3.02-0.97,3.55
	c-1.28,0.43-2.07-1.09-2.87-1.97c-10.95-12.06-22.16-23.9-32.47-36.52c-0.62-0.76-1.32-1.46-1.95-2.16
	c-1.04,0.41-0.69,1.19-0.68,1.78c0.22,10.05,0.41,20.11,0.73,30.16c0.17,5.21,0.57,5.54,5.79,6.64
	C152.73,55.79,152.93,56.09,153.75,56.78z"/>
<path d="M241.62,29.72c6.59,0,13.18,0,20.56,0c-5.51,2.47-5.53,2.47-5.58,8.25c-0.04,4.69-0.09,9.39-0.02,14.08
	c0.03,1.77-0.53,2.99-2.17,3.74c-8.5,3.88-27.14,4.69-37.39-4.79c-8.41-7.77-11.22-21.62-6.64-33.8
	c4.14-10.98,13.4-17.16,25.69-17.4c6.08-0.12,12.03,0.73,17.97,1.81c0.81,0.15,2.02-0.09,2.03,1.21c0.05,4.52,0.02,9.04,0.02,13.51
	c-1.41,0.01-1.71-0.28-1.83-0.73c-2-7.46-6.35-11.08-14.16-11.78c-13.32-1.19-21.02,5.2-22.18,18.59
	c-0.75,8.58,0.44,16.78,5.91,23.79c5.29,6.77,12.46,9.04,20.82,8.06c2.44-0.29,3.45-1.62,3.39-4.07c-0.1-3.8-0.02-7.6-0.03-11.4
	C248.02,31.79,248.02,31.79,241.62,29.72z"/>
<path d="M307.07,1.12c9.01,0.91,18.03-1.75,26.65,1.65c5.83,2.3,7.71,9.43,4.76,15.75c-1.15,2.45-2.87,4.48-4.89,6.52
	c1.65,1.07,3.17,1.97,4.59,2.99c6.26,4.49,8.58,11.3,6.35,18.55c-1.95,6.33-8.09,10.81-15.31,10.93
	c-6.97,0.11-13.94,0.02-21.11,0.02c0.26-1.13,0.31-1.52,0.35-1.52c4.5,0.02,4.94-3.09,5.05-6.48c0.45-13.95,0.25-27.91,0.12-41.87
	c-0.03-3.4-1.64-5.18-5.12-5.15C308.01,2.53,307.39,2.62,307.07,1.12z M321.81,39.29c0.01,0,0.02,0,0.02,0
	c0,3.12-0.08,6.24,0.03,9.35c0.07,2.05,0.56,3.93,2.85,4.81c6.07,2.35,11.51-0.84,12.05-7.27c0.17-1.97,0.06-4.02-0.26-5.98
	c-1.14-6.93-5.91-11.68-11.83-12.16c-2.01-0.16-3.09,0.16-2.91,2.58C321.98,33.49,321.81,36.4,321.81,39.29z M332.53,15.94
	c0-0.67,0.06-1.34-0.01-2.01c-0.61-5.72-3.82-9.45-8.06-9.54c-1.71-0.04-2.72,0.3-2.68,2.36c0.1,5.24,0.09,10.48,0,15.72
	c-0.03,1.76,0.66,2.26,2.33,2.37C329.72,25.2,332.51,22.33,332.53,15.94z"/>
<path d="M405.07,55.61c6.67,0.73,7.79-4.06,9.35-8.37c5.42-14.98,10.8-29.98,16.23-44.96c0.4-1.09,0.59-2.83,2.01-2.72
	c1.27,0.1,1.48,1.75,1.9,2.9c5.28,14.55,10.56,29.11,15.86,43.66c2.6,7.14,2.63,7.14,9.7,10.51c-5.63,0.84-11.28,0.43-17.5,0.34
	c1.67-2.02,1.35-3.73,0.61-5.61c-1.43-3.63-2.66-7.33-3.84-11.05c-0.51-1.62-1.26-2.34-3.06-2.28c-3.68,0.14-7.37,0.15-11.05-0.01
	c-1.97-0.08-2.74,0.73-3.23,2.5c-0.75,2.68-1.78,5.28-2.66,7.92c-1.94,5.83-1.94,5.83,3.16,8.28c-5.65,0-11.29,0-16.94,0
	C405.43,56.36,405.25,55.98,405.07,55.61z M424.35,34.13c4,0,7.54,0.01,11.09-0.01c0.86,0,1.87,0.18,1.36-1.37
	c-1.93-5.77-3.79-11.56-5.93-18.1C428.56,21.54,426.51,27.66,424.35,34.13z"/>
<path d="M575.71,46.16c0.46,3.53-0.23,6.83-0.98,10.12c-0.23,1.01-1.15,1.27-2.12,1.25c-9.6-0.18-19.2-0.34-28.8-0.53
	c-0.17,0-0.33-0.24-0.49-0.38c0.03-0.21,0.06-0.59,0.09-0.59c4.32,0.03,4.97-3,4.99-6.25c0.09-14.3,0.08-28.59,0.09-42.89
	c0-2.69-1.44-4.07-4.08-4.32c-0.82-0.08-1.76,0.2-2.68-0.88c2.64-0.94,5.18-0.5,7.6-0.56c7.8-0.21,15.62,0.75,23.39-0.6
	c0.89-0.15,1.79-0.07,1.57,1.01c-0.68,3.26,0.06,6.69-1.13,9.9c-0.33-0.11-0.68-0.14-0.71-0.26c-1.65-5.74-1.85-5.89-8-6
	c-7.29-0.14-7.29-0.14-7.29,7.2c0,3.57,0.08,7.15-0.03,10.72c-0.05,1.76,0.54,2.23,2.29,2.29c7.55,0.25,9.95-0.04,14.03-2.45
	c-1.06,4.41-0.58,8.41-1.19,12.52c-0.6-0.3-0.91-0.35-0.95-0.48c-1.57-5.6-1.57-5.6-7.78-5.72c-6.38-0.12-6.38-0.12-6.38,6.13
	c0,4.24,0.05,8.49,0.02,12.73c-0.02,3.08,1.43,4.85,4.5,5.14c1.88,0.17,3.79,0.29,5.68,0.18c4.46-0.26,5.65-1.32,6.93-5.73
	c0.12-0.42,0.28-0.85,0.49-1.23C574.84,46.36,575.14,46.35,575.71,46.16z"/>
<path d="M0.75,41.89c1.47,2,1.13,3.65,1.5,5.11c1.03,4.07,3.36,6.84,7.49,7.68c3.76,0.76,7.22-0.13,9.51-3.41
	c2.43-3.48,1.91-7.2,0.15-10.8c-1.04-2.14-2.77-3.76-4.47-5.39c-2.58-2.46-5.27-4.83-7.69-7.45C1.49,21.39-0.02,13.53,3.16,7.3
	c2.9-5.68,9.28-8.28,18.01-7.34c5.64,0.61,5.79,0.81,5.57,6.43c-0.09,2.24-0.01,4.48-0.01,7.38c-1.86-1.54-1.6-2.88-1.97-3.98
	c-1.22-3.61-3.53-5.9-7.42-6.32c-3.22-0.34-6.06,0.46-7.91,3.28C7.68,9.42,8.2,13.8,10.48,16.81c1.76,2.33,4.04,4.15,6.21,6.07
	c1.92,1.7,3.84,3.42,5.58,5.3c6.1,6.59,7.62,15.84,3.81,22.55c-3.63,6.38-11.59,9.21-20.66,7.33c-5.27-1.09-5.63-1.46-5.53-6.76
	C-0.07,48.35-0.47,45.32,0.75,41.89z"/>
<path d="M47.25,56.27c5.36-1.48,5.6-1.62,5.64-7.44c0.1-12.95,0.09-25.89,0.07-38.84c-0.01-6.43-0.07-6.43-5.93-8.35
	c6.89,0,13.77,0,20.75,0c-0.12,0.24-0.21,0.7-0.39,0.74c-5.48,1.16-5.75,1.3-5.79,6.88c-0.08,11.83-0.14,23.66,0.08,35.49
	c0.14,7.59,1.39,8.58,8.91,8.68c6.32,0.09,6.87-0.29,10.97-7.3c0.28,3.43,0.3,6.85-0.88,10.18c-0.34,0.96-1.24,1.21-2.2,1.2
	c-10.04-0.15-20.08-0.3-30.12-0.48C48.11,57.04,47.87,56.71,47.25,56.27z"/>
<path d="M364.21,1.51c6.84,0,13.68,0,20.56,0c-0.06,0.41-0.05,0.59-0.1,0.6c-5.9,1.88-5.93,1.88-5.93,8.48
	c0,11.61-0.07,23.22,0.1,34.83c0.1,6.96,1.1,7.77,8.11,7.98c1.34,0.04,2.68-0.01,4.01-0.1c3.38-0.24,5.64-1.83,6.38-5.31
	c0.15-0.7,0.05-1.59,1.47-2.24c0.38,3.86-0.16,7.35-1.23,10.76c-0.29,0.93-1.37,1.02-2.3,1.01c-9.93-0.15-19.86-0.3-29.79-0.47
	c-0.26,0-0.52-0.33-0.76-0.49c0.08-0.29,0.1-0.66,0.19-0.68c4.61-1.03,5.09-1.55,5.14-7.43c0.1-10.83,0.04-21.66,0.05-32.49
	c0-1.79,0-3.57-0.01-5.36C370.1,3.83,370.1,3.83,364.21,1.51z"/>
<path d="M118.27,56.9c-6.93,0-13.85,0-20.82,0c0.05-0.44,0.07-0.82,0.1-0.82c4.52-0.22,5.09-3.2,5.09-6.88
	c-0.03-13.19,0.12-26.37,0.1-39.56c-0.01-5.84-0.13-5.84-5.46-8.06c6.43,0,12.86,0,19.28,0c-5.63,0.73-5.36,4.88-5.36,8.83
	c-0.01,11.62-0.04,23.25,0.03,34.87c0.02,2.67,0.12,5.41,0.72,7.99C112.72,56.58,116.36,54.84,118.27,56.9z"/>
</svg>
